<svg id="Layer_1" data-name="Layer 1" xmlns="http://www.w3.org/2000/svg" viewBox="0 0 216 48.63"><defs><style>.cls-1{fill:#fff;}</style></defs><title>Artboard 1</title><path class="cls-1" d="M22.43,37.38V23.82H9.84V37.38H4.47V6.63H9.84V19.5H22.43V6.63h5.4V37.38Z"/><path class="cls-1" d="M32,30.37c0-4.1,1.79-6.68,6.33-7.36a74.14,74.14,0,0,1,8.32-.62c0-3.26-1.42-4.9-5-4.9a68,68,0,0,0-8.17.59L33,14.41a54.67,54.67,0,0,1,9.06-.85c5.17,0,9.43,1.41,9.43,7.4V31.32c0,1.55-.06,2.89-.19,4.32-2.63,1.48-6.13,2.06-10.51,2.06C34.45,37.7,32,35.2,32,30.37ZM46.6,25.66a35.79,35.79,0,0,0-6.38.57c-2.45.56-3.32,1.32-3.32,4.06,0,2.94,1.64,3.66,4.65,3.66a12.11,12.11,0,0,0,4.91-.81c.1-1,.14-2.1.14-3.15Z"/><path class="cls-1" d="M71.77,18.08a23.59,23.59,0,0,0-4.07-.49c-6.19,0-6.79,1.71-6.79,7.8,0,5.77.25,8.19,6.81,8.19a20.51,20.51,0,0,0,4-.52l.45,3.82a31.78,31.78,0,0,1-7.3.82c-7.84,0-9.09-5.93-9.09-12.31,0-7.69,1.78-11.83,10.38-11.83a20.81,20.81,0,0,1,6,.81Z"/><path class="cls-1" d="M95.64,13.87,86,24.83,96.17,37.38H90.08l-9-11.56V37.38h-5V4.79h5V24.27l8.85-10.4Z"/><path class="cls-1" d="M97.87,30.37c0-4.1,1.78-6.68,6.32-7.36a74.32,74.32,0,0,1,8.33-.62c0-3.26-1.43-4.9-5-4.9a67.86,67.86,0,0,0-8.17.59l-.41-3.67a54.54,54.54,0,0,1,9-.85c5.18,0,9.44,1.41,9.44,7.4V31.32c0,1.55-.07,2.89-.2,4.32-2.63,1.48-6.12,2.06-10.51,2.06C100.36,37.7,97.87,35.2,97.87,30.37Zm14.65-4.71a35.91,35.91,0,0,0-6.39.57c-2.44.56-3.31,1.32-3.31,4.06,0,2.94,1.63,3.66,4.64,3.66a12.11,12.11,0,0,0,4.91-.81,28.93,28.93,0,0,0,.15-3.15Z"/><path class="cls-1" d="M134.85,37.35a22.7,22.7,0,0,1-3.55.35c-4.76,0-6.78-2.08-6.78-6.42V17.59h-4V13.87h4V8.05l5-.82v6.64h4.89v3.72h-4.89V30.86c0,2.27,1,3,3.15,3,.6,0,1.18,0,1.78-.07Z"/><path class="cls-1" d="M158.26,37.38h-5V22.9c0-3.75-.69-5.33-5.53-5.33a11.34,11.34,0,0,0-4.44.92V37.38h-5V4.79h5v9.65a19.31,19.31,0,0,1,5.81-.88c8.3,0,9.17,3.86,9.17,8.75Z"/><path class="cls-1" d="M172.54,37.7c-7.69,0-10.46-3.28-10.46-12.08s2.77-12.06,10.46-12.06S183,17,183,25.62,180.24,37.7,172.54,37.7Zm0-4c4.25,0,5.44-1.86,5.44-8.09s-1.19-8.08-5.44-8.08-5.41,1.6-5.41,8.08S168.29,33.71,172.54,33.71Z"/><path class="cls-1" d="M207.31,37.38h-5V22.85c0-3.75-.66-5.33-5.48-5.33a10.44,10.44,0,0,0-4.29.79,28.93,28.93,0,0,0-.15,3.15V37.38h-5V19.93c0-1.54.07-2.89.2-4.32a24.16,24.16,0,0,1,10.61-2c8.28,0,9.12,3.86,9.12,8.75Z"/></svg>